<?xml version="1.0" encoding="UTF-8" standalone="no"?>
<!DOCTYPE svg PUBLIC "-//W3C//DTD SVG 1.1//EN" "http://www.w3.org/Graphics/SVG/1.1/DTD/svg11.dtd">
<svg width="100%" height="100%" viewBox="0 0 300 300" version="1.1" xmlns="http://www.w3.org/2000/svg" xmlns:xlink="http://www.w3.org/1999/xlink" xml:space="preserve" xmlns:serif="http://www.serif.com/" style="fill-rule:evenodd;clip-rule:evenodd;stroke-linecap:round;stroke-linejoin:round;stroke-miterlimit:1.5;">
    <g transform="matrix(1.22123,0,0,1.22123,-55.0592,-19.4456)">
        <path d="M282.55,41.89C282.55,32.078 274.583,24.111 264.771,24.111L71.052,24.111C61.24,24.111 53.273,32.078 53.273,41.89L53.273,235.609C53.273,245.422 61.24,253.388 71.052,253.388L264.771,253.388C274.583,253.388 282.55,245.422 282.55,235.609L282.55,41.89Z" style="fill:none;stroke:black;stroke-width:6.82px;"/>
    </g>
    <path d="M237.143,53.967L188.857,34.919C187.714,34.443 186.571,34.602 185.571,35.078C184,35.872 100,68.888 100,68.888C97.857,69.682 96.429,71.904 96.429,74.444L96.429,96.666C96.429,98.729 97.571,100.475 99.286,101.11L110.429,105.555C113.286,106.666 116.143,104.444 116.143,101.11L116.143,82.539C116.143,79.999 117.571,77.777 119.714,76.983L195.571,47.777L223,58.57L148.571,87.618C147,88.253 145.714,89.999 145.714,92.063L145.714,188.571L68.571,158.254L68.571,61.745L151.429,29.205C153.714,28.253 154.857,25.554 154,23.173C153.143,20.634 150.714,19.364 148.571,20.316L62.857,53.967C61.143,54.602 60,56.507 60,58.412L60,161.587C60,163.651 61.143,165.397 62.857,166.032L148.571,199.683C149,199.841 149.571,200 150,200L150.857,200C151,200 151.143,199.841 151.429,199.841L237.143,166.19C238.857,165.555 240,163.651 240,161.746L240,58.57C240,56.348 238.857,54.602 237.143,53.967ZM220.119,135.578C220.119,137.287 219.697,139.136 218.855,141.126C218.013,143.115 216.688,145.068 214.882,146.985C213.075,148.902 210.768,150.458 207.96,151.654C205.153,152.85 201.881,153.449 198.146,153.449C195.314,153.449 192.738,153.18 190.419,152.643C188.1,152.106 185.994,151.27 184.102,150.134C182.21,148.999 180.47,147.504 178.883,145.648C177.467,143.964 176.259,142.078 175.258,139.99C174.257,137.903 173.506,135.675 173.006,133.307C172.505,130.939 172.255,128.424 172.255,125.763C172.255,121.442 172.883,117.572 174.141,114.154C175.398,110.736 177.199,107.813 179.542,105.383C181.886,102.954 184.633,101.105 187.782,99.835C190.932,98.566 194.289,97.931 197.853,97.931C202.199,97.931 206.068,98.798 209.462,100.531C212.855,102.265 215.456,104.407 217.262,106.958C219.069,109.509 219.972,111.92 219.972,114.191C219.972,115.436 219.533,116.535 218.654,117.487C217.775,118.439 216.713,118.915 215.468,118.915C214.076,118.915 213.032,118.585 212.337,117.926C211.641,117.267 210.866,116.132 210.011,114.52C208.595,111.859 206.929,109.87 205.012,108.551C203.096,107.233 200.734,106.574 197.926,106.574C193.458,106.574 189.9,108.27 187.251,111.664C184.602,115.058 183.278,119.879 183.278,126.129C183.278,130.304 183.864,133.777 185.036,136.548C186.207,139.319 187.868,141.388 190.016,142.755C192.164,144.122 194.679,144.806 197.56,144.806C200.685,144.806 203.328,144.031 205.488,142.481C207.649,140.93 209.279,138.654 210.377,135.651C210.841,134.235 211.415,133.081 212.099,132.19C212.782,131.299 213.881,130.853 215.394,130.853C216.688,130.853 217.799,131.305 218.727,132.208C219.655,133.112 220.119,134.235 220.119,135.578Z" style="fill-rule:nonzero;"/>
    <path d="M134.711,263.151L137.079,263.75C136.582,265.694 135.689,267.178 134.399,268.199C133.11,269.22 131.533,269.731 129.669,269.731C127.74,269.731 126.172,269.338 124.963,268.553C123.755,267.768 122.835,266.63 122.205,265.141C121.574,263.652 121.259,262.053 121.259,260.344C121.259,258.48 121.615,256.855 122.327,255.467C123.039,254.08 124.052,253.026 125.366,252.305C126.681,251.585 128.127,251.225 129.706,251.225C131.496,251.225 133.002,251.681 134.222,252.592C135.443,253.504 136.294,254.785 136.774,256.438L134.442,256.987C134.027,255.685 133.425,254.737 132.635,254.143C131.846,253.549 130.853,253.251 129.657,253.251C128.282,253.251 127.132,253.581 126.208,254.24C125.285,254.899 124.636,255.784 124.261,256.895C123.887,258.006 123.7,259.152 123.7,260.332C123.7,261.853 123.922,263.182 124.365,264.317C124.809,265.452 125.498,266.301 126.434,266.862C127.37,267.424 128.383,267.705 129.474,267.705C130.8,267.705 131.923,267.322 132.843,266.557C133.763,265.792 134.385,264.657 134.711,263.151ZM176.398,265.251L178.668,265.532C178.31,266.858 177.647,267.888 176.678,268.62C175.71,269.353 174.473,269.719 172.968,269.719C171.071,269.719 169.568,269.135 168.457,267.967C167.346,266.799 166.791,265.161 166.791,263.054C166.791,260.873 167.352,259.18 168.475,257.976C169.598,256.771 171.055,256.169 172.845,256.169C174.579,256.169 175.995,256.759 177.094,257.939C178.192,259.119 178.741,260.779 178.741,262.919C178.741,263.05 178.737,263.245 178.729,263.505L169.061,263.505C169.143,264.93 169.545,266.02 170.27,266.777C170.994,267.534 171.897,267.912 172.98,267.912C173.785,267.912 174.473,267.701 175.043,267.277C175.612,266.854 176.064,266.179 176.398,265.251ZM138.898,262.944C138.898,260.543 139.565,258.765 140.9,257.609C142.015,256.649 143.374,256.169 144.977,256.169C146.759,256.169 148.216,256.753 149.347,257.921C150.478,259.088 151.044,260.702 151.044,262.761C151.044,264.429 150.793,265.741 150.293,266.698C149.792,267.654 149.064,268.396 148.108,268.925C147.152,269.454 146.108,269.719 144.977,269.719C143.162,269.719 141.695,269.137 140.576,267.973C139.457,266.809 138.898,265.133 138.898,262.944ZM162.03,269.426L162.03,267.79C161.208,269.076 160,269.719 158.405,269.719C157.371,269.719 156.421,269.434 155.554,268.864C154.688,268.295 154.016,267.499 153.54,266.478C153.064,265.456 152.826,264.283 152.826,262.956C152.826,261.662 153.042,260.488 153.473,259.434C153.904,258.38 154.551,257.573 155.414,257.011C156.276,256.45 157.241,256.169 158.307,256.169C159.088,256.169 159.784,256.334 160.394,256.663C161.005,256.993 161.501,257.422 161.884,257.951L161.884,251.53L164.069,251.53L164.069,269.426L162.03,269.426ZM141.156,262.944C141.156,264.604 141.518,265.847 142.242,266.673C142.967,267.499 143.878,267.912 144.977,267.912C146.067,267.912 146.975,267.497 147.699,266.667C148.423,265.837 148.785,264.571 148.785,262.871C148.785,261.267 148.421,260.053 147.693,259.227C146.965,258.401 146.059,257.988 144.977,257.988C143.878,257.988 142.967,258.399 142.242,259.221C141.518,260.043 141.156,261.284 141.156,262.944ZM155.084,262.956C155.084,264.616 155.434,265.857 156.134,266.679C156.834,267.501 157.66,267.912 158.612,267.912C159.572,267.912 160.388,267.519 161.06,266.734C161.731,265.949 162.067,264.75 162.067,263.139C162.067,261.365 161.725,260.063 161.041,259.233C160.358,258.403 159.515,257.988 158.514,257.988C157.538,257.988 156.722,258.387 156.067,259.184C155.412,259.982 155.084,261.239 155.084,262.956ZM169.183,261.699L176.422,261.699C176.324,260.608 176.048,259.79 175.592,259.245C174.892,258.399 173.985,257.976 172.87,257.976C171.861,257.976 171.012,258.313 170.325,258.989C169.637,259.664 169.257,260.568 169.183,261.699ZM95.782,232.886L101.056,232.886L101.056,233.142C101.056,235.388 101.843,236.951 103.418,237.83C104.993,238.708 107.086,239.148 109.698,239.148C111.993,239.148 113.916,238.477 115.466,237.134C117.017,235.791 117.792,234.033 117.792,231.86C117.792,230.078 117.12,228.625 115.778,227.502C114.459,226.404 112.433,225.293 109.698,224.17L107.611,223.328C104.755,222.156 102.618,220.99 101.202,219.83C99.786,218.671 98.73,217.389 98.035,215.985C97.339,214.581 96.991,213.013 96.991,211.279C96.991,208.228 98.071,205.652 100.232,203.552C102.393,201.453 105.768,200.403 110.358,200.403C114.581,200.403 117.548,201.184 119.257,202.747C120.966,204.309 121.82,206.128 121.82,208.203L121.82,208.496L116.583,208.496L116.583,208.203C116.583,207.544 116.315,206.897 115.778,206.262C115.24,205.627 114.447,205.164 113.397,204.871C112.347,204.578 111.188,204.431 109.918,204.431C107.33,204.431 105.42,205.078 104.187,206.372C102.954,207.666 102.338,209.143 102.338,210.803C102.338,211.902 102.631,212.939 103.217,213.916C103.802,214.893 104.608,215.704 105.634,216.351C106.659,216.998 108.392,217.859 110.834,218.933L113.324,219.995C117.279,221.704 119.916,223.511 121.234,225.415C122.552,227.295 123.212,229.333 123.212,231.531C123.212,233.557 122.675,235.516 121.6,237.408C120.526,239.301 119.037,240.735 117.133,241.711C115.228,242.688 112.689,243.176 109.515,243.176C106.512,243.176 103.998,242.816 101.971,242.096C99.945,241.376 98.407,240.198 97.357,238.562C96.307,236.926 95.782,235.12 95.782,233.142L95.782,232.886ZM210.919,212.927L215.753,212.927L215.753,241.968L210.919,241.968L210.919,236.914C209.918,238.452 208.936,239.612 207.971,240.393C207.007,241.174 206.012,241.766 204.987,242.169C203.961,242.572 202.838,242.773 201.617,242.773C198.932,242.773 196.655,242.017 194.788,240.503C192.92,238.989 191.986,235.938 191.986,231.348L191.986,212.927L196.82,212.927L196.82,229.297C196.82,233.545 197.382,236.115 198.505,237.006C199.628,237.897 201.019,238.342 202.679,238.342C204.12,238.342 205.481,237.921 206.763,237.079C208.044,236.237 209.058,235.052 209.802,233.527C210.547,232.001 210.919,229.895 210.919,227.209L210.919,212.927ZM172.43,242.773C168.622,242.773 165.381,241.486 162.708,238.91C160.034,236.334 158.698,232.507 158.698,227.429C158.698,222.375 160.034,218.561 162.708,215.985C165.381,213.409 168.622,212.122 172.43,212.122C176.215,212.122 179.443,213.409 182.117,215.985C184.79,218.561 186.127,222.375 186.127,227.429C186.127,232.507 184.79,236.334 182.117,238.91C179.443,241.486 176.215,242.773 172.43,242.773ZM84.247,212.927L89.081,212.927L89.081,241.968L84.247,241.968L84.247,212.927ZM133.868,241.968L129.034,241.968L129.034,200L133.868,200L133.868,217.944C134.894,216.357 135.889,215.186 136.853,214.429C137.817,213.672 138.824,213.098 139.874,212.708C140.924,212.317 142.096,212.122 143.39,212.122C145.197,212.122 146.826,212.494 148.279,213.239C149.731,213.983 150.854,215.082 151.648,216.534C152.441,217.987 152.838,220.3 152.838,223.474L152.838,241.968L148.004,241.968L148.004,225.562C148.004,222.949 147.833,221.106 147.491,220.032C147.15,218.958 146.49,218.109 145.514,217.487C144.537,216.864 143.427,216.553 142.181,216.553C140.765,216.553 139.417,216.968 138.135,217.798C136.853,218.628 135.822,219.794 135.04,221.295C134.259,222.797 133.868,224.927 133.868,227.686L133.868,241.968ZM172.43,238.745C175.018,238.745 177.106,237.708 178.693,235.632C180.28,233.557 181.073,230.823 181.073,227.429C181.073,224.06 180.28,221.338 178.693,219.263C177.106,217.188 175.018,216.15 172.43,216.15C169.818,216.15 167.719,217.188 166.132,219.263C164.545,221.338 163.751,224.06 163.751,227.429C163.751,230.823 164.545,233.557 166.132,235.632C167.719,237.708 169.818,238.745 172.43,238.745ZM84.247,206.482L84.247,201.611L89.081,201.611L89.081,206.482L84.247,206.482Z" style="fill-rule:nonzero;"/>
</svg>
